<svg width="86" height="86" viewBox="0 0 86 86" fill="none" xmlns="http://www.w3.org/2000/svg">
<path fill-rule="evenodd" clip-rule="evenodd" d="M32.8603 16.7507L34.1613 16.7507L51.8389 16.7507L53.1399 16.7507L53.3238 18.0385C53.6688 20.4534 52.8567 22.8897 51.1318 24.6146L50.7702 24.9762L53.215 43.72C58.8534 46.2241 63.3061 50.8347 65.606 56.5844L66.4288 58.6415L64.2133 58.6415L44.5001 58.6415L44.5001 76.587L44.5001 78.087L41.5001 78.087L41.5001 76.587L41.5001 58.6415L21.7869 58.6415L19.5713 58.6415L20.3942 56.5844C22.6941 50.8347 27.1468 46.2241 32.7851 43.72L35.23 24.9762L34.8684 24.6146C33.1435 22.8897 32.3313 20.4534 32.6763 18.0385L32.8603 16.7507ZM35.6385 19.7507C35.7729 20.7772 36.241 21.7446 36.9897 22.4933L37.8736 23.3772L38.3958 23.8994L38.3003 24.6318L35.6487 44.9612L35.5349 45.8332L34.7183 46.1599C30.1613 47.9827 26.4236 51.3536 24.1362 55.6415L43.0001 55.6415H61.864C59.5766 51.3536 55.8388 47.9827 51.2818 46.1599L50.4653 45.8332L50.3515 44.9612L47.6999 24.6318L47.6043 23.8994L48.1266 23.3772L49.0105 22.4933C49.7592 21.7446 50.2273 20.7772 50.3616 19.7507L35.6385 19.7507Z" fill="#19191D"/>
</svg>
