<svg width="16" height="21" viewBox="0 0 16 21" fill="none" xmlns="http://www.w3.org/2000/svg">
<path d="M15.5 20.143V20.1436L15.4997 20.1434L8.26566 15.6064L8.00003 15.4398L7.73438 15.6064L0.500379 20.1424L0.5 20.1426L0.5 1C0.5 0.867392 0.552678 0.740215 0.646447 0.646447C0.740215 0.552678 0.867392 0.5 1 0.5H15C15.1326 0.5 15.2598 0.552679 15.3536 0.646447C15.4473 0.740214 15.5 0.867391 15.5 1V20.143ZM14.5 2V1.5H14H2H1.5V2V17.432V18.3355L2.26556 17.8556L8 14.2611L13.7344 17.8556L14.5 18.3355V17.432V2Z" fill="black" stroke="black"/>
</svg>
